<svg width="102" height="21" viewBox="0 0 204 42" xmlns="http://www.w3.org/2000/svg" fill-rule="evenodd" clip-rule="evenodd" stroke-linejoin="round" stroke-miterlimit="1.414"><g fill-rule="nonzero"><path d="M17.58 39.373H6.463c-1.6 0-2.748-.364-3.434-1.09C2.344 37.554 2 36.4 2 34.812V7.19c0-1.621.352-2.789 1.055-3.5.703-.71 1.838-1.064 3.409-1.064h11.788c1.736 0 3.24.11 4.514.325 1.275.218 2.414.637 3.426 1.253a9.037 9.037 0 012.282 1.968 8.737 8.737 0 011.512 2.635c.347.959.52 1.972.52 3.042 0 3.679-1.816 6.37-5.457 8.072 4.78 1.54 7.173 4.53 7.173 8.975 0 2.054-.525 3.906-1.567 5.553-1.042 1.643-2.448 2.862-4.218 3.645-1.105.47-2.38.8-3.819.992-1.44.193-3.116.287-5.039.287zm-.543-16.316H9.37v10.725h7.914c4.98 0 7.47-1.81 7.47-5.437 0-1.857-.644-3.2-1.936-4.035-1.291-.838-3.218-1.253-5.78-1.253zM9.37 8.217v9.501h6.75c1.833 0 3.251-.175 4.255-.526 1-.355 1.766-1.022 2.295-2.006.41-.702.618-1.489.618-2.357 0-1.857-.652-3.09-1.96-3.697-1.305-.611-3.3-.915-5.98-.915H9.37zM54.6 2.001c3.769 0 7.008.77 9.714 2.319 2.701 1.544 4.75 3.743 6.14 6.592 1.389 2.85 2.083 6.194 2.083 10.036 0 2.84-.381 5.424-1.143 7.747-.758 2.323-1.901 4.338-3.422 6.04-1.52 1.708-3.391 3.008-5.606 3.91-2.219.903-4.755 1.357-7.618 1.357-2.845 0-5.394-.466-7.643-1.395-2.248-.924-4.124-2.233-5.631-3.923C39.97 33 38.83 30.967 38.06 28.597c-.767-2.374-1.152-4.941-1.152-7.696 0-2.823.402-5.416 1.203-7.773.804-2.353 1.964-4.36 3.485-6.015 1.524-1.655 3.374-2.922 5.56-3.799 2.18-.877 4.661-1.313 7.443-1.313zm10.468 18.9c0-2.69-.428-5.022-1.288-6.994-.86-1.973-2.091-3.466-3.683-4.475-1.597-1.01-3.43-1.514-5.497-1.514-1.473 0-2.833.278-4.082.838a8.985 8.985 0 00-3.226 2.443c-.902 1.07-1.614 2.434-2.134 4.098-.521 1.664-.78 3.53-.78 5.604 0 2.088.259 3.974.78 5.664.52 1.685 1.257 3.089 2.21 4.197.948 1.112 2.04 1.942 3.273 2.494 1.232.551 2.583.83 4.057.83 1.884 0 3.62-.48 5.2-1.43 1.579-.953 2.837-2.425 3.768-4.414.936-1.985 1.402-4.436 1.402-7.341zm29.776-18.9c3.768 0 7.008.77 9.713 2.319 2.702 1.544 4.751 3.743 6.14 6.592 1.39 2.85 2.084 6.194 2.084 10.036 0 2.84-.381 5.424-1.144 7.747-.758 2.323-1.9 4.338-3.421 6.04-1.524 1.708-3.392 3.008-5.606 3.91-2.22.903-4.756 1.357-7.618 1.357-2.845 0-5.395-.466-7.643-1.395-2.248-.924-4.129-2.233-5.632-3.923-1.503-1.685-2.642-3.717-3.413-6.087-.766-2.374-1.151-4.941-1.151-7.696 0-2.823.402-5.416 1.202-7.773.8-2.353 1.965-4.36 3.485-6.015 1.524-1.655 3.375-2.922 5.56-3.799 2.18-.877 4.662-1.313 7.444-1.313zm10.467 18.9c0-2.69-.427-5.022-1.287-6.994-.864-1.973-2.092-3.466-3.688-4.475-1.597-1.01-3.426-1.514-5.492-1.514-1.474 0-2.833.278-4.082.838a8.985 8.985 0 00-3.227 2.443c-.902 1.07-1.613 2.434-2.134 4.098-.52 1.664-.779 3.53-.779 5.604 0 2.088.258 3.974.78 5.664.52 1.685 1.257 3.089 2.21 4.197.948 1.112 2.04 1.942 3.273 2.494 1.232.551 2.583.83 4.056.83 1.885 0 3.62-.48 5.2-1.43 1.58-.953 2.833-2.425 3.769-4.414.935-1.985 1.401-4.436 1.401-7.341zm41.412 7.444c0 2.22-.567 4.218-1.702 5.989-1.13 1.77-2.79 3.161-4.975 4.162-2.18 1.001-4.772 1.506-7.766 1.506-3.587 0-6.546-.689-8.88-2.058a11.843 11.843 0 01-4.03-3.948c-1.038-1.647-1.555-3.247-1.555-4.8 0-.903.314-1.673.932-2.319.622-.641 1.41-.962 2.371-.962.775 0 1.436.248 1.97.748.537.505.998 1.245 1.38 2.233.461 1.168.96 2.148 1.499 2.93.537.788 1.295 1.434 2.27 1.943.977.513 2.26.766 3.848.766 2.18 0 3.955-.514 5.319-1.54 1.367-1.027 2.049-2.31 2.049-3.85 0-1.22-.368-2.208-1.105-2.97-.737-.76-1.685-1.338-2.854-1.74-1.165-.403-2.723-.826-4.675-1.28-2.617-.616-4.802-1.339-6.563-2.168-1.762-.826-3.159-1.955-4.192-3.384-1.038-1.43-1.554-3.204-1.554-5.326 0-2.024.546-3.82 1.638-5.39 1.093-1.57 2.672-2.777 4.739-3.62 2.07-.847 4.5-1.266 7.296-1.266 2.231 0 4.162.278 5.792.839 1.63.56 2.981 1.304 4.057 2.233 1.075.924 1.863 1.9 2.358 2.917.496 1.018.746 2.015.746 2.982 0 .885-.314 1.685-.932 2.396-.622.71-1.393 1.065-2.32 1.065-.843 0-1.487-.214-1.923-.638-.44-.427-.914-1.125-1.427-2.096-.66-1.386-1.456-2.468-2.384-3.242-.923-.78-2.413-1.168-4.463-1.168-1.901 0-3.438.423-4.603 1.266-1.168.843-1.748 1.86-1.748 3.046 0 .736.199 1.369.592 1.903.398.535.945.997 1.64 1.378a10.7 10.7 0 002.108.903c.711.218 1.884.534 3.523.954a54.103 54.103 0 015.572 1.604c1.66.586 3.074 1.296 4.243 2.13a8.716 8.716 0 012.727 3.17c.652 1.28.982 2.845.982 4.702zm29.87-19.576h-8.037v26.694c0 1.536-.339 2.678-1.016 3.422-.682.745-1.559 1.117-2.634 1.117-1.088 0-1.978-.377-2.664-1.13-.69-.752-1.033-1.89-1.033-3.409V8.769h-8.037c-1.257 0-2.193-.283-2.803-.843-.614-.556-.919-1.296-.919-2.216 0-.954.318-1.707.957-2.254.636-.552 1.559-.83 2.765-.83h23.42c1.275 0 2.224.286 2.842.851.622.569.932 1.313.932 2.233 0 .92-.314 1.66-.945 2.216-.626.56-1.57.843-2.828.843z"/><path d="M182.398 40.002c-1.025 0-1.91-.338-2.655-1.005-.74-.668-1.113-1.605-1.113-2.807 0-1.018.355-1.895 1.067-2.63.71-.736 1.587-1.104 2.63-1.104 1.04 0 1.93.363 2.667 1.09a3.59 3.59 0 011.1 2.644c0 1.185-.368 2.118-1.1 2.794-.737.676-1.6 1.018-2.596 1.018zm15.904 0c-1.024 0-1.91-.338-2.655-1.005-.745-.668-1.113-1.605-1.113-2.807 0-1.018.356-1.895 1.067-2.63.707-.736 1.588-1.104 2.63-1.104 1.041 0 1.93.363 2.663 1.09a3.577 3.577 0 011.105 2.644c0 1.185-.368 2.118-1.105 2.794a3.7 3.7 0 01-2.592 1.018z" fill="#1a7aff"/></g></svg>